# xmcd CD database file
#
# Track frame offsets:
#	150
#	25278
#	43535
#	63738
#	83046
#	99984
#	116748
#	136248
#	157080
#	176334
#	191101
#	212859
#	231237
#	253791
#	270948
#	294281
#	313026
#
# Disc length: 4436 seconds
#
# Revision: 3
# Processed by: cddbd v1.5.2PL0 Copyright (c) Steve Scherf et al.
# Submitted via: CDex 1.51
#
DISCID=f2115211
DTITLE=Tina Turner - All the Best - Disc Two  
DYEAR=2004
DGENRE=Rock
TTITLE0=In your wildest Dreams
TTITLE1=Private Dancer
TTITLE2=Why must we wait until tonight
TTITLE3=Typical Male
TTITLE4=Tonight (David Bowie with Tina Turner)
TTITLE5=Complicated Disaster
TTITLE6=On silent Wings
TTITLE7=Something Special
TTITLE8=We don't need another Hero
TTITLE9=It's only love (Bryan Adams with Tina Turner)
TTITLE10=Cose Della Vita (Eros Ramazotti with Tina Turner)
TTITLE11=Steamy Windows
TTITLE12=Paradise is here
TTITLE13=What's love got to do with it
TTITLE14=Better be good to me
TTITLE15=Two People
TTITLE16=Something beautiful Remains
EXTD=YEAR: 2004
EXTT0=
EXTT1=
EXTT2=
EXTT3=
EXTT4=
EXTT5=
EXTT6=
EXTT7=
EXTT8=
EXTT9=
EXTT10=
EXTT11=
EXTT12=
EXTT13=
EXTT14=
EXTT15=
EXTT16=
PLAYORDER=
